<svg xmlns="http://www.w3.org/2000/svg" width="1920" height="1099" viewBox="0 0 1920 1099">
  <defs>
    <linearGradient id="gradient" x1="1" x2="1" y1="0" y2="1" gradientTransform="rotate(-10)">
      <stop offset="0%" stop-color="#526DD5" stop-opacity="0.2" />
      <stop offset="60%" stop-color="#526DD5" stop-opacity="0" />
    </linearGradient>
  </defs>
  <g fill="none" fill-rule="evenodd">
    <g fill="url(#gradient)" x="1" y="1" transform="translate(-23)">
      <path d="M0.885024082,376.092914 C0.885024082,376.092914 456.004976,110.891273 564.42204,158.530902 C711.280629,223.062152 455.572266,374.90625 573.129313,419.386719 C690.686361,463.867187 683.355634,284.819964 868.125925,276.663714 C1052.89622,268.507464 1329.15555,356.827777 1472.94255,257.679339 C1616.72955,158.530902 1643.8978,23.1964777 1838.53697,48.8554688 C1881.16859,54.4755308 1958.77098,118.90018 1958.77098,118.90018 L1958.77098,1358.28087 L0.885024082,1354.67795 L0.885024082,376.092914 Z"/>
    </g>
    <g fill="#526DD5" transform="translate(-23)" opacity="0.2">
      <ellipse cx="715.754" cy="83.684" transform="rotate(-41 715.754 83.684)" rx="75.246" ry="45"/>
      <path d="M1148.49325,189.140625 C1148.49325,145.105469 1202.76695,173.539062 1311.50331,141.179688 C1420.23966,108.820313 1436.34795,78.4296875 1485.80105,99.8125 C1535.25415,121.195312 1432.70081,213.504037 1358.41924,233.175781 C1284.13768,252.847525 1148.49325,233.175781 1148.49325,189.140625 Z"/>
    </g>
    <rect width="1920" height="1066"/>
  </g>
</svg>
